PathFileType	4	(X/Y/Z)	/home/nbianco/projects/addbio/data/HamnerRunning2013/Processed/subject02//results/MarkerData/run500.trc
DataRate	CameraRate	NumFrames	NumMarkers	Units	OrigDataRate	OrigDataStartFrame	OrigNumFrames
120.005	120.005	10	42	m	120.005	147	236
Frame#	Time	C7			CLAV			LACR			LASI			LCAL			LFAradius			LFAsuperior			LFAulna			LLEL			LMEL			LMT5			LPSI			LTB1			LTB2			LTB3			LTH1			LTH2			LTH3			LTOE			LUA1			LUA2			LUA3			RACR			RASI			RCAL			RFAradius			RFAsuperior			RFAulna			RLEL			RMEL			RMT5			RPSI			RTB1			RTB2			RTB3			RTH1			RTH2			RTH3			RTOE			RUA1			RUA2			RUA3		
		X1	Y1	Z1	X2	Y2	Z2	X3	Y3	Z3	X4	Y4	Z4	X5	Y5	Z5	X6	Y6	Z6	X7	Y7	Z7	X8	Y8	Z8	X9	Y9	Z9	X10	Y10	Z10	X11	Y11	Z11	X12	Y12	Z12	X13	Y13	Z13	X14	Y14	Z14	X15	Y15	Z15	X16	Y16	Z16	X17	Y17	Z17	X18	Y18	Z18	X19	Y19	Z19	X20	Y20	Z20	X21	Y21	Z21	X22	Y22	Z22	X23	Y23	Z23	X24	Y24	Z24	X25	Y25	Z25	X26	Y26	Z26	X27	Y27	Z27	X28	Y28	Z28	X29	Y29	Z29	X30	Y30	Z30	X31	Y31	Z31	X32	Y32	Z32	X33	Y33	Z33	X34	Y34	Z34	X35	Y35	Z35	X36	Y36	Z36	X37	Y37	Z37	X38	Y38	Z38	X39	Y39	Z39	X40	Y40	Z40	X41	Y41	Z41	X42	Y42	Z42

148	1.39167	0.889876	1.57794	-0.645671	0.998361	1.4992	-0.577025	1.00253	1.54854	-0.78478	0.969731	1.0586	-0.771199	0.283596	0.315662	-0.638213	1.11993	1.34063	-0.716906	1.07354	1.24119	-0.858562	1.16732	1.28521	-0.720468	1.00364	1.19339	-0.914433	0.93712	1.17331	-0.856618	0.311674	0.141938	-0.69975	0.7994	1.11736	-0.675669	0.576443	0.46593	-0.688203	0.488929	0.424209	-0.730487	0.434795	0.32221	-0.663892	0.802407	0.88192	-0.811096	0.784832	0.751831	-0.792185	0.66985	0.692623	-0.751413	0.381223	0.103099	-0.618141	1.01823	1.45365	-0.852599	1.03822	1.38628	-0.840164	0.952354	1.3544	-0.875309	0.917296	1.56345	-0.464654	0.982296	1.07893	-0.516988	1.08671	0.201777	-0.609441	0.804031	1.20308	-0.398597	0.669523	1.32653	-0.357909	0.754451	1.17877	-0.351318	0.602815	1.40287	-0.386937	0.607966	1.39358	-0.469489	1.2511	0.138146	-0.541547	0.801866	1.1139	-0.589818	1.24878	0.513652	-0.584432	1.21685	0.449147	-0.517535	1.21449	0.350364	-0.591179	0.971908	0.927296	-0.459025	1.08451	0.872063	-0.47127	1.09343	0.745507	-0.503929	1.31901	0.171751	-0.629127	0.835013	1.51653	-0.401418	0.784085	1.44233	-0.401396	0.719472	1.48821	-0.41978
149	1.4	0.889739	1.58023	-0.645908	0.998108	1.50191	-0.575587	1.00325	1.55311	-0.783013	0.97252	1.06113	-0.771744	0.265717	0.339339	-0.63608	1.11603	1.34668	-0.714698	1.07274	1.24636	-0.856619	1.16346	1.2911	-0.717169	1.00423	1.1983	-0.913992	0.935977	1.17887	-0.85773	0.287181	0.166568	-0.702209	0.803059	1.12188	-0.677468	0.565657	0.476717	-0.686285	0.47749	0.437771	-0.7296	0.417396	0.339589	-0.66251	0.801187	0.88855	-0.81211	0.781695	0.757405	-0.793463	0.666403	0.700365	-0.750189	0.355956	0.122922	-0.622196	1.01978	1.4592	-0.851606	1.03943	1.39153	-0.838968	0.95468	1.36067	-0.876768	0.915561	1.56584	-0.465245	0.984355	1.07954	-0.517605	1.13	0.179116	-0.610415	0.80213	1.21001	-0.396776	0.665893	1.33343	-0.359209	0.752481	1.18623	-0.349431	0.599073	1.40864	-0.390216	0.605585	1.39762	-0.472375	1.30086	0.133152	-0.54435	0.805344	1.11655	-0.591643	1.25546	0.507119	-0.583354	1.22967	0.439423	-0.51695	1.23981	0.340905	-0.590727	0.970458	0.92379	-0.461429	1.08343	0.868433	-0.471702	1.09013	0.74067	-0.503335	1.36393	0.175952	-0.631082	0.832359	1.52087	-0.403213	0.780763	1.44746	-0.402263	0.716796	1.49296	-0.423792
150	1.40833	0.889592	1.58202	-0.64625	0.998049	1.504	-0.574258	1.00394	1.55679	-0.781676	0.97492	1.06338	-0.77223	0.247148	0.363715	-0.631653	1.1124	1.35054	-0.712691	1.07162	1.25006	-0.8553	1.15954	1.29466	-0.714406	1.00411	1.20231	-0.914064	0.934094	1.18364	-0.859442	0.263869	0.193222	-0.703875	0.805988	1.12562	-0.677955	0.556923	0.485389	-0.685498	0.466863	0.450851	-0.728884	0.400775	0.357341	-0.660905	0.801704	0.893119	-0.812594	0.781682	0.760778	-0.793926	0.66585	0.704736	-0.750375	0.332276	0.145068	-0.625931	1.0211	1.46369	-0.850926	1.04035	1.39553	-0.837987	0.956733	1.36581	-0.878161	0.914399	1.56746	-0.465398	0.986039	1.07924	-0.517622	1.17084	0.160387	-0.611246	0.801556	1.21549	-0.394276	0.663869	1.33856	-0.359794	0.752129	1.19219	-0.346716	0.596453	1.41241	-0.39264	0.6041	1.39959	-0.474322	1.34587	0.13168	-0.546131	0.808388	1.11783	-0.59226	1.25933	0.499697	-0.582696	1.23938	0.429729	-0.516457	1.26196	0.332677	-0.590171	0.969437	0.920287	-0.463357	1.08188	0.863652	-0.471214	1.08576	0.734628	-0.502982	1.40351	0.183294	-0.631347	0.830684	1.52349	-0.404267	0.778586	1.45064	-0.402893	0.715174	1.49581	-0.426915
151	1.41667	0.889518	1.58339	-0.646575	0.998086	1.50552	-0.573214	1.00464	1.55953	-0.780806	0.977158	1.06557	-0.772347	0.230652	0.389485	-0.626277	1.10907	1.35213	-0.710826	1.07009	1.25227	-0.854639	1.15566	1.29577	-0.712125	1.00312	1.20549	-0.914658	0.931471	1.18771	-0.861567	0.241386	0.221462	-0.704518	0.808109	1.12842	-0.677296	0.550481	0.492254	-0.685945	0.457489	0.464047	-0.728436	0.385931	0.375255	-0.659711	0.803961	0.895342	-0.812581	0.784348	0.76214	-0.79347	0.667852	0.706383	-0.751704	0.309459	0.168609	-0.629272	1.02223	1.46699	-0.850474	1.04095	1.39826	-0.837198	0.958238	1.3698	-0.879235	0.913761	1.56844	-0.46501	0.987307	1.0785	-0.516964	1.20692	0.146536	-0.61202	0.802366	1.21945	-0.391253	0.663447	1.34189	-0.359622	0.753425	1.19642	-0.343439	0.595099	1.41414	-0.39404	0.603629	1.3996	-0.47518	1.38387	0.133404	-0.546692	0.810652	1.11799	-0.591865	1.2606	0.492252	-0.582851	1.2461	0.420973	-0.516303	1.28015	0.326439	-0.589801	0.968852	0.917686	-0.464103	1.07947	0.857431	-0.469763	1.07955	0.727787	-0.503716	1.43626	0.192783	-0.630023	0.829873	1.52444	-0.404454	0.777556	1.45178	-0.403189	0.714616	1.49681	-0.429019
152	1.425	0.889612	1.58437	-0.646715	0.998142	1.50651	-0.572575	1.00535	1.56131	-0.780397	0.979309	1.0678	-0.771989	0.218384	0.417033	-0.621141	1.10603	1.35145	-0.709066	1.06801	1.25303	-0.854496	1.15186	1.29443	-0.710317	1.00117	1.20792	-0.915745	0.928166	1.19112	-0.863906	0.219992	0.251237	-0.704271	0.809562	1.13014	-0.675976	0.546597	0.497499	-0.687179	0.450391	0.47734	-0.72822	0.373724	0.393186	-0.659091	0.807795	0.895359	-0.812204	0.78897	0.761932	-0.79246	0.671994	0.705961	-0.753592	0.287241	0.193156	-0.632199	1.02315	1.46905	-0.850209	1.04115	1.39978	-0.836633	0.958845	1.3727	-0.879974	0.91354	1.56884	-0.464178	0.988058	1.07762	-0.515935	1.23607	0.13773	-0.613051	0.804601	1.22176	-0.388015	0.664596	1.34331	-0.358619	0.756401	1.19872	-0.339819	0.595097	1.41378	-0.3942	0.604166	1.39775	-0.474807	1.41295	0.13717	-0.546071	0.811694	1.11753	-0.590841	1.2597	0.485638	-0.583792	1.25012	0.413877	-0.516605	1.29367	0.322517	-0.589758	0.968401	0.915766	-0.463341	1.07587	0.84961	-0.46763	1.07142	0.720517	-0.505374	1.46123	0.202477	-0.627583	0.829782	1.52393	-0.403868	0.777609	1.45105	-0.403073	0.714975	1.49607	-0.429961
153	1.43333	0.889907	1.58492	-0.646512	0.998173	1.50693	-0.572377	1.00598	1.56212	-0.780364	0.981327	1.06993	-0.771274	0.211224	0.446261	-0.616857	1.1033	1.34861	-0.707448	1.06526	1.25245	-0.854697	1.14813	1.29074	-0.709019	0.998213	1.20965	-0.917241	0.924229	1.19388	-0.866314	0.200667	0.282716	-0.70358	0.810587	1.13076	-0.674606	0.545395	0.501172	-0.688575	0.44658	0.490156	-0.728141	0.364698	0.411115	-0.658788	0.812979	0.893589	-0.811651	0.794846	0.760514	-0.791465	0.677842	0.703798	-0.755489	0.266017	0.218836	-0.634675	1.02379	1.46985	-0.850142	1.04083	1.40022	-0.836396	0.958281	1.37465	-0.880532	0.913643	1.56857	-0.463177	0.9882	1.07684	-0.515087	1.25682	0.132981	-0.614826	0.808314	1.22225	-0.384854	0.667278	1.34268	-0.356689	0.76107	1.19907	-0.335975	0.596448	1.41132	-0.392937	0.605607	1.39412	-0.473116	1.43211	0.14113	-0.544712	0.81115	1.11692	-0.589574	1.25716	0.480238	-0.585126	1.25161	0.408511	-0.517347	1.30216	0.32042	-0.590065	0.967661	0.913602	-0.461296	1.07106	0.840535	-0.465273	1.06224	0.713239	-0.506985	1.47816	0.210142	-0.624744	0.83031	1.52223	-0.40277	0.778668	1.44874	-0.402478	0.716025	1.49368	-0.42963
154	1.44167	0.890354	1.58488	-0.645897	0.998175	1.5067	-0.57257	1.00645	1.56195	-0.780547	0.983138	1.0716	-0.770524	0.209205	0.476672	-0.613546	1.1009	1.34376	-0.706083	1.06177	1.25063	-0.855181	1.1444	1.28482	-0.708299	0.994237	1.21066	-0.919037	0.919649	1.19595	-0.868734	0.184893	0.315974	-0.702978	0.811358	1.13035	-0.673704	0.54685	0.50332	-0.689724	0.446612	0.501754	-0.72811	0.359175	0.429085	-0.658403	0.819211	0.8905	-0.811124	0.801501	0.757965	-0.790941	0.685026	0.699893	-0.757148	0.246691	0.245984	-0.636626	1.024	1.4695	-0.85031	1.0399	1.39975	-0.836647	0.956481	1.37579	-0.881082	0.914046	1.56745	-0.462305	0.987711	1.07631	-0.514924	1.26862	0.13035	-0.61774	0.813576	1.2209	-0.381861	0.671428	1.33993	-0.353748	0.76741	1.1976	-0.331923	0.599075	1.40682	-0.39018	0.607834	1.38877	-0.470101	1.44152	0.143307	-0.543456	0.809123	1.11641	-0.588392	1.25342	0.475789	-0.586408	1.25062	0.404211	-0.51848	1.30568	0.318906	-0.590787	0.966265	0.910418	-0.458601	1.06538	0.831251	-0.463121	1.05346	0.706542	-0.507679	1.4873	0.214087	-0.622295	0.831399	1.51956	-0.401471	0.780655	1.4452	-0.401364	0.717559	1.48979	-0.428006
155	1.45	0.890842	1.58409	-0.644931	0.998184	1.50564	-0.573038	1.00671	1.56081	-0.780759	0.984727	1.07238	-0.770145	0.212283	0.507517	-0.61118	1.09882	1.33704	-0.705125	1.05756	1.24768	-0.856027	1.14057	1.27686	-0.70824	0.989279	1.21092	-0.921064	0.914327	1.19729	-0.871174	0.174156	0.350701	-0.702837	0.811902	1.12903	-0.673537	0.550872	0.504109	-0.69057	0.450492	0.511615	-0.728104	0.357395	0.447038	-0.657723	0.826059	0.886427	-0.810781	0.808734	0.754149	-0.791035	0.693329	0.694135	-0.758678	0.230298	0.274765	-0.637962	1.0236	1.46821	-0.850756	1.03831	1.39851	-0.83753	0.953608	1.37618	-0.881701	0.914781	1.56536	-0.461704	0.986612	1.07599	-0.515589	1.27165	0.12768	-0.62175	0.820446	1.21791	-0.378867	0.676934	1.33507	-0.349768	0.77537	1.19457	-0.327613	0.602852	1.40037	-0.385997	0.610799	1.3817	-0.465847	1.44223	0.142195	-0.543292	0.806389	1.11585	-0.587609	1.24874	0.471608	-0.587435	1.24719	0.399978	-0.519982	1.30451	0.316534	-0.592093	0.963987	0.906241	-0.455959	1.05939	0.823298	-0.461388	1.04634	0.701121	-0.507437	1.48911	0.213624	-0.620966	0.833006	1.51601	-0.4002	0.783482	1.44069	-0.399725	0.719462	1.48452	-0.425187
156	1.45833	0.891254	1.58237	-0.643774	0.99825	1.50359	-0.573636	1.00678	1.55868	-0.780862	0.986131	1.07194	-0.770361	0.220629	0.537887	-0.60981	1.09697	1.32858	-0.704711	1.05266	1.24366	-0.857364	1.13657	1.26699	-0.708928	0.98341	1.21039	-0.92331	0.908137	1.19788	-0.873635	0.169413	0.386064	-0.703256	0.812115	1.12678	-0.674091	0.557345	0.503834	-0.691266	0.45784	0.519578	-0.728201	0.359517	0.464698	-0.656883	0.83298	0.881545	-0.810671	0.816561	0.748943	-0.791596	0.702696	0.686533	-0.760383	0.217704	0.304918	-0.63865	1.02247	1.46618	-0.851514	1.03608	1.39653	-0.8391	0.949957	1.37583	-0.88237	0.915891	1.56227	-0.461317	0.98493	1.07565	-0.516741	1.26643	0.123446	-0.626253	0.828904	1.21366	-0.375558	0.683644	1.32828	-0.344801	0.784882	1.19029	-0.322987	0.60765	1.39211	-0.380554	0.614536	1.37298	-0.460493	1.43569	0.137032	-0.544957	0.804013	1.11479	-0.587509	1.24316	0.467007	-0.58831	1.24149	0.395034	-0.521819	1.29901	0.31231	-0.594109	0.960758	0.901925	-0.453874	1.05378	0.818094	-0.460063	1.04131	0.697438	-0.507004	1.48409	0.208901	-0.621317	0.835092	1.51155	-0.399043	0.787045	1.4353	-0.397593	0.721731	1.47799	-0.421364
157	1.46667	0.891516	1.57963	-0.642611	0.998404	1.50044	-0.574239	1.00672	1.55555	-0.780825	0.987353	1.07012	-0.770969	0.234282	0.566826	-0.609563	1.09524	1.31844	-0.70493	1.04711	1.23859	-0.85926	1.13232	1.25536	-0.710456	0.976738	1.20904	-0.925792	0.901075	1.19776	-0.876059	0.170811	0.42085	-0.704137	0.811882	1.12339	-0.675195	0.566103	0.502818	-0.691972	0.468118	0.525771	-0.728566	0.365511	0.48161	-0.656288	0.839482	0.875893	-0.810707	0.825103	0.742433	-0.79235	0.713158	0.677321	-0.762539	0.209573	0.335722	-0.638797	1.0206	1.46353	-0.852603	1.0333	1.3938	-0.84129	0.945824	1.37471	-0.88305	0.917396	1.55822	-0.460984	0.982701	1.07489	-0.517726	1.25367	0.1173	-0.630353	0.838808	1.20859	-0.371692	0.691413	1.31985	-0.338977	0.79587	1.185	-0.318031	0.613383	1.3822	-0.374046	0.619097	1.36269	-0.45417	1.42313	0.127689	-0.548571	0.802606	1.11271	-0.588254	1.23648	0.461547	-0.58926	1.23364	0.389095	-0.523844	1.28949	0.305972	-0.596672	0.956707	0.89855	-0.452598	1.04923	0.816164	-0.459168	1.03793	0.695355	-0.50708	1.47284	0.200302	-0.623574	0.837648	1.50613	-0.397937	0.791243	1.42901	-0.395021	0.724456	1.47026	-0.416741
